<svg height="512" viewBox="0 0 54 60" width="512" xmlns="http://www.w3.org/2000/svg"><g id="Page-1" fill="none" fill-rule="evenodd"><g id="002---Alarm" fill-rule="nonzero"><g id="color" transform="translate(1 1)"><path id="Shape" d="m43.59 50h-41.18c-.79340865-.0147946-1.50302536-.4972699-1.80854327-1.2296462-.3055179-.7323762-.14914179-1.5761089.39854327-2.1503538 2.95959188-3.1790244 4.72644599-7.2851934 5-11.62v-11c-.00045994-6.7401865 3.98120686-12.8441013 10.15-15.56 2.1569941-.9553415 4.4909186-1.44597673 6.85-1.44.43 0 .86 0 1.28.05-2.8900306 4.6240361-3.0430597 10.4522093-.3996686 15.2215353 2.6433911 4.7693259 7.6667807 7.7284776 13.1196686 7.7284647 1.0075982.0022439 2.0127986-.0982761 3-.3v5.3c.273554 4.3348066 2.0404081 8.4409756 5 11.62.5476851.5742449.7040612 1.4179776.3985433 2.1503538-.3055179.7323763-1.0151347 1.2148516-1.8085433 1.2296462z" fill="#ffeb3a"/><path id="Shape" d="m45 46.62c-2.9595919-3.1790244-4.726446-7.2851934-5-11.62v-5.3c-.9872014.2017239-1.9924018.3022439-3 .3v5c.273554 4.3348066 2.0404081 8.4409756 5 11.62.5476851.5742449.7040612 1.4179776.3985433 2.1503538-.3055179.7323763-1.0151347 1.2148516-1.8085433 1.2296462h3c.7934086-.0147946 1.5030254-.4972699 1.8085433-1.2296462.3055179-.7323762.1491418-1.5761089-.3985433-2.1503538z" fill="#fdd834"/><path id="Shape" d="m19 15c0 8.2842712 6.7157288 15 15 15 .51 0 1 0 1.52-.07-5.164041-.511349-9.6969679-3.6554878-11.9850639-8.3131067s-2.0063019-10.1670315.7450639-14.5668933c-.42-.05-.85-.05-1.28-.05-.5811751-.00046151-1.1619739.02957981-1.74.09-1.4802043 2.3725591-2.2633498 5.1135683-2.26 7.91z" fill="#fdd834"/><path id="Shape" d="m10 47h-4c-.55228475 0-1-.4477153-1-1s.44771525-1 1-1h4c.5522847 0 1 .4477153 1 1s-.4477153 1-1 1z" fill="#ff9801"/><path id="Shape" d="m40 47h-26c-.5522847 0-1-.4477153-1-1s.4477153-1 1-1h26c.5522847 0 1 .4477153 1 1s-.4477153 1-1 1z" fill="#ff9801"/><path id="Shape" d="m10 25c-.55228475 0-1-.4477153-1-1 .00204964-4.2531794 1.937432-8.274801 5.26-10.93.4313699-.3403569 1.0565461-.2689082 1.4.16.3426824.4287515.2757366 1.0535791-.15 1.4-2.8488417 2.2759139-4.5083301 5.7236758-4.51 9.37 0 .2652165-.1053568.5195704-.2928932.7071068s-.4418903.2928932-.7071068.2928932z" fill="#f5f5f5"/><path id="Shape" d="m31 50c0 4.418278-3.581722 8-8 8s-8-3.581722-8-8z" fill="#ff9801"/><path id="Shape" d="m28 50c-.0038932 3.8368157-2.7312294 7.1305987-6.5 7.85.493673.1003847.9962245.1506399 1.5.15 2.1217319 0 4.1565632-.8428547 5.6568542-2.3431458 1.5002911-1.500291 2.3431458-3.5351223 2.3431458-5.6568542z" fill="#f57c00"/><path id="Shape" d="m28.48 2.66c-1.6820648 1.1647241-3.1107889 2.65808097-4.2 4.39-.42-.05-.85-.05-1.28-.05-2.3590814-.00597673-4.6930059.4846585-6.85 1.44-.1014049-.47324629-.1516933-.95601432-.15-1.44.0065384-2.97408965 1.891664-5.61935381 4.7007497-6.59623136 2.8090856-.97687755 5.9287719-.07206878 7.7792503 2.25623136z" fill="#ff9801"/><path id="Shape" d="m23 0c-.5080804.00049118-1.0145289.05750857-1.51.17 1.5832285.33734808 2.9984074 1.21829694 4 2.49-1.6820648 1.1647241-3.1107889 2.65808097-4.2 4.39-.43-.05-.86-.05-1.29-.05-1.3474155.0046736-2.6897335.16575176-4 .48.0205445.33590156.0639786.67001044.13 1 2.1601499-.97184982 4.5013031-1.47620305 6.87-1.48.43 0 .86 0 1.28.05 1.0892111-1.73191903 2.5179352-3.2252759 4.2-4.39-1.3191388-1.68378769-3.3410187-2.66521118-5.48-2.66z" fill="#f57c00"/><path id="Shape" d="m52 15c.001455 7.1290293-5.0150062 13.2741943-12 14.7-.9872014.2017239-1.9924018.3022439-3 .3-6.0669337 0-11.536478-3.6546327-13.858193-9.2597485-2.321715-5.6051159-1.0383787-12.05688328 3.2515913-16.34685322 4.2899699-4.28996994 10.7417373-5.57330627 16.3468532-3.25159127 5.6051158 2.321715 9.2597485 7.79125932 9.2597485 13.85819299z" fill="#e91e63"/><path id="Shape" d="m37 0c-.4877212.00145148-.9750402.02815389-1.46.08 7.3708134.75697489 13.0846038 6.78245158 13.4493868 14.1830485.3647829 7.4005968-4.7287462 13.9587773-11.9893868 15.4369515-.4891015.1017828-.9830767.1785492-1.48.23.48.07.98.07 1.48.07 1.0075982.0022439 2.0127986-.0982761 3-.3 7.5521783-1.5335153 12.7136061-8.5402033 11.9391328-16.2074882-.7744732-7.66728486-7.2328363-13.50025663-14.9391328-13.4925118z" fill="#ad1457"/><g fill="#f5f5f5"><path id="Shape" d="m37 18c-1.1541588-.0001761-2.1294576-.8557013-2.28-2l-1.15-8c-.1547202-1.00109385.1357336-2.01981285.7951301-2.78878842.6593966-.76897557 1.6218905-1.21142012 2.6348699-1.21121158 1.0129794-.00020854 1.9754733.44223601 2.6348699 1.21121158.6593965.76897557.9498503 1.78769457.7951301 2.78878842l-1.15 8c-.1505424 1.1442987-1.1258412 1.9998239-2.28 2z"/><circle id="Oval" cx="37" cy="24" r="2"/></g></g><g id="Icons" fill="#000"><path id="Shape" d="m38 0c-2.9424738.00400037-5.8261218.82443804-8.33 2.37-1.4920246-1.52382724-3.5373701-2.37876001-5.67-2.37-4.418278 0-8 3.581722-8 8 .0014184.2940012.0181076.58773027.05.88-6.14347032 3.0243188-10.03887744 9.2724743-10.05 16.12v11c-.27530336 4.108628-1.96424501 7.9953138-4.78 11-.8246492.8845567-1.03755516 2.1777633-.54 3.28.49795262 1.0555615 1.56289911 1.7265168 2.73 1.72h11.65c.5267237 4.5387214 4.3708173 7.962503 8.94 7.962503s8.4132763-3.4237816 8.94-7.962503h11.65c1.1786983-.0024594 2.2467352-.6949229 2.73-1.77.4753496-1.0886234.2636008-2.355195-.54-3.23-2.8039808-3.0124104-4.4910161-6.8947092-4.78-11v-4.53c7.7591581-2.0479408 12.8009753-9.5268429 11.7891133-17.4876677-1.0118621-7.9608248-7.7643482-13.9406099-15.7891133-13.9823323zm-20 8c0-3.3137085 2.6862915-6 6-6 1.4788843-.00431169 2.9058271.5450613 4 1.54-1.2435101.98855469-2.3351501 2.15431838-3.24 3.46-.25 0-.5 0-.76 0-2.0454566.00285652-4.0751347.35805018-6 1.05zm6 50c-3.4803793.0008933-6.4328031-2.5553177-6.93-6h13.86c-.4971969 3.4446823-3.4496207 6.0008933-6.93 6zm21.3-9.71c.2942534.2994407.3701445.7507933.19 1.13-.1625128.3511818-.5130497.5770834-.9.58h-41.18c-.38695031-.0029166-.73748724-.2288182-.9-.58-.18014452-.3792067-.10425339-.8305593.19-1.13 3.14967205-3.3507236 5.02508263-7.699553 5.3-12.29v-11c-.00232494-8.6940557 6.9382689-15.79895026 15.63-16-1.0755777 2.1765197-1.6334347 4.5722245-1.63 7 0 8.836556 7.163444 16 16 16 .6688862-.0061324 1.3367825-.0528852 2-.14v4.14c.2749174 4.590447 2.1503279 8.9392764 5.3 12.29zm-7.3-18.29c-7.7319865 0-14-6.2680135-14-14s6.2680135-14 14-14 14 6.2680135 14 14-6.2680135 14-14 14z"/><path id="Shape" d="m38 4c-1.2956233-.00178911-2.527988.55991623-3.3765321 1.53900555-.848544.97908932-1.2293884 2.27877897-1.0434679 3.56099445l1.15 8.06c.2221099 1.635959 1.6190322 2.8560405 3.27 2.8560405s3.0478901-1.2200815 3.27-2.8560405l1.15-8.06c.1859205-1.28221548-.1949239-2.58190513-1.0434679-3.56099445-.8485441-.97908932-2.0809088-1.54079466-3.3765321-1.53900555zm2.44 4.82-1.15 8.06c-.0811779.6506953-.6342606 1.1390652-1.29 1.1390652s-1.2088221-.4883699-1.29-1.1390652l-1.15-8.06c-.1514823-.96305364.2776729-1.92511466 1.0954765-2.45579018s1.8712434-.53067552 2.689047 0 1.2469588 1.49273654 1.0954765 2.45579018z"/><path id="Shape" d="m38 22c-1.6568542 0-3 1.3431458-3 3s1.3431458 3 3 3 3-1.3431458 3-3-1.3431458-3-3-3zm0 4c-.5522847 0-1-.4477153-1-1s.4477153-1 1-1 1 .4477153 1 1-.4477153 1-1 1z"/></g></g></g></svg>